<?xml version="1.0" encoding="utf-8"?>
<!-- Generator: Adobe Illustrator 18.0.0, SVG Export Plug-In . SVG Version: 6.00 Build 0)  -->
<!DOCTYPE svg PUBLIC "-//W3C//DTD SVG 1.1//EN" "http://www.w3.org/Graphics/SVG/1.1/DTD/svg11.dtd">
<svg version="1.1" id="Layer_1" xmlns="http://www.w3.org/2000/svg" xmlns:xlink="http://www.w3.org/1999/xlink" x="0px" y="0px"
	 viewBox="0 0 128 128" enable-background="new 0 0 128 128" xml:space="preserve">
<path fill="#EAF6F6" d="M64,8C33.1,8,8,33.1,8,64c0,30.9,25.1,56,56,56c30.9,0,56-25.1,56-56C120,33.1,94.9,8,64,8z M79.8,43.3
	c0,0.6-0.4,1-1,1l-6.4,0c-4.2,0-5,1.6-5,4.9v6.7h10.9c0.3,0,0.6,0.1,0.8,0.3s0.3,0.5,0.2,0.8l-1.6,12c-0.1,0.5-0.5,0.9-1,0.9h-9.4
	v29.9c0,0.6-0.4,1-1,1H54.1c-0.6,0-1-0.4-1-1V69.9h-9.4c-0.6,0-1-0.4-1-1v-12c0-0.6,0.4-1,1-1h9.4V48c0-10.4,6.3-16.9,16.5-16.9
	c4.4,0,8.2,0.3,9.4,0.5c0.5,0.1,0.9,0.5,0.9,1V43.3z"/>
</svg>
