<svg width="327" height="173" viewBox="0 0 327 173" fill="none" xmlns="http://www.w3.org/2000/svg">
<path d="M216.865 95.3338H163.5L138.921 61.9989L171.124 35.584L205.911 22.6738L233.15 79.5368L216.865 95.3338ZM164.819 92.7388H215.816L230.003 78.9745L204.591 25.9392L172.432 37.8654L142.468 62.4422L164.819 92.7388Z" fill="#F2F2F2"/>
<path d="M97.1917 95.5717L94.1531 77.1364L120.96 50.9485L123.144 49.5969L141.581 61.642L166.668 95.3879L97.1917 95.5717ZM96.8132 78.0122L99.3003 93.074L161.77 92.9875L139.829 63.4694L122.982 52.4622L96.8132 78.0122Z" fill="#F2F2F2"/>
<path d="M140.802 64.1074L123.901 53.0786L120.96 50.9594L158.245 27.9612L172.118 37.5194L140.802 64.1074ZM125.145 50.9161L125.263 50.9918L140.608 61.0042L168.042 37.7141L158.158 30.9022L125.145 50.9161Z" fill="#F2F2F2"/>
<path d="M44.6705 106.265H51.5803C55.0947 106.265 58.382 108.06 58.382 111.607C58.382 114.548 56.2193 117.121 53.4727 117.964V118.029C56.7167 118.808 59.3552 121.111 59.3552 124.657C59.3552 127.263 57.3223 130.712 53.0942 130.712H44.6705V106.265ZM47.9254 117.056H49.2771C52.3589 117.056 55.1272 115.737 55.1272 112.353C55.1272 109.271 52.2183 108.698 49.8826 108.698H47.9254V117.056ZM47.9254 128.117C48.877 128.215 49.8826 128.29 51.0072 128.29C55.3002 128.29 55.9165 125.922 55.9165 124.365C55.9165 119.965 50.6396 119.089 47.9254 119.089V128.117Z" fill="#F2F2F2"/>
<path d="M65.6487 106.265H79.1115V108.698H68.8927V116.753H77.4895V119.186H68.8927V128.29H79.8252V130.723H65.6487V106.265Z" fill="#F2F2F2"/>
<path d="M101.182 106.265V108.698H93.5691V130.723H90.3251V108.698H82.7124V106.265H101.182Z" fill="#F2F2F2"/>
<path d="M109.638 118.31H109.703L119.446 106.265H122.657L113.315 117.672L124.723 130.734H120.257L109.638 118.31V130.723H106.394V106.265H109.638V118.31Z" fill="#F2F2F2"/>
<path d="M133.265 125.62H133.33L146.836 106.265H149.41V130.723H146.166V111.607H146.101L132.714 130.723H130.011V106.265H133.255V125.62H133.265Z" fill="#F2F2F2"/>
<path d="M160.667 118.31H160.732L170.475 106.265H173.686L164.343 117.672L175.752 130.734H171.286L160.667 118.31V130.723H157.423V106.265H160.667V118.31Z" fill="#F2F2F2"/>
<path d="M187.841 106.265H191.085L200.763 130.723H197.281L194.502 123.781H183.743L181.007 130.723H178.163L187.841 106.265ZM193.561 121.349L189.128 110.179L184.727 121.349H193.561Z" fill="#F2F2F2"/>
<path d="M210.506 106.265L217.34 125.522H217.405L224.445 106.265H228.543V130.723H225.494V110.558H225.429L218.66 129.101H215.416L208.819 110.558H208.754V130.723H205.911V106.265H210.506Z" fill="#F2F2F2"/>
<path d="M239.811 116.753H251.684V106.265H254.928V130.723H251.684V119.186H239.811V130.723H236.567V106.265H239.811V116.753Z" fill="#F2F2F2"/>
<path d="M266.207 125.62H266.271L279.778 106.265H282.351V130.723H279.107V111.607H279.042L265.666 130.723H262.963V106.265H266.207V125.62Z" fill="#F2F2F2"/>
<path d="M206.555 56.3623L205.259 54.114L185.482 65.5129L186.778 67.7612L206.555 56.3623Z" fill="#F2F2F2"/>
<path d="M188.079 65.4805H185.484V94.6093H188.079V65.4805Z" fill="#F2F2F2"/>
<path d="M212.925 77.375L211.673 75.1021L186.147 89.159L187.399 91.432L212.925 77.375Z" fill="#F2F2F2"/>
<path d="M207.352 68.5501L204.971 67.5173L198.357 82.7634L200.737 83.7962L207.352 68.5501Z" fill="#F2F2F2"/>
<path d="M194.257 60.6134L178.312 48.2307L176.72 50.2802L192.665 62.6629L194.257 60.6134Z" fill="#F2F2F2"/>
<path d="M192.932 45.15L190.927 43.5022L182.838 53.3416L184.843 54.9895L192.932 45.15Z" fill="#F2F2F2"/>
<path d="M187.928 82.9728L156.04 59.6975L154.51 61.7935L186.398 85.0688L187.928 82.9728Z" fill="#F2F2F2"/>
<path d="M177.066 57.8521L174.91 56.408L166.509 68.9498L168.666 70.3939L177.066 57.8521Z" fill="#F2F2F2"/>
<path d="M122.654 81.5873L107.426 66.7539L105.615 68.6127L120.843 83.4461L122.654 81.5873Z" fill="#F2F2F2"/>
<path d="M131.305 68.6715L130.598 66.1743L111.244 71.6466L111.95 74.1438L131.305 68.6715Z" fill="#F2F2F2"/>
<path d="M139.926 83.6954L123.664 69.1917L121.937 71.1283L138.198 85.632L139.926 83.6954Z" fill="#F2F2F2"/>
<path d="M111.552 71.2002H108.957V83.2021H111.552V71.2002Z" fill="#F2F2F2"/>
<path d="M146.387 46.5227L145.139 44.8911L130.539 56.0596L131.788 57.6911L146.387 46.5227Z" fill="#F2F2F2"/>
<path d="M143.441 44.1042H141.386V48.2671H143.441V44.1042Z" fill="#F2F2F2"/>
<path d="M145.712 51.5757H136.628V53.6301H145.712V51.5757Z" fill="#F2F2F2"/>
<path d="M55.8712 154.214L52.3462 144.824H52.2862C52.3162 145.134 52.3412 145.554 52.3612 146.084C52.3812 146.604 52.3912 147.149 52.3912 147.719V154.214H51.1462V143.504H53.1412L56.4412 152.279H56.5012L59.8612 143.504H61.8412V154.214H60.5062V147.629C60.5062 147.109 60.5162 146.594 60.5362 146.084C60.5662 145.574 60.5912 145.159 60.6112 144.839H60.5512L56.9812 154.214H55.8712ZM71.4746 154.214L70.1846 150.899H65.9396L64.6646 154.214H63.2996L67.4846 143.459H68.6996L72.8696 154.214H71.4746ZM68.5796 146.459C68.5496 146.379 68.4996 146.234 68.4296 146.024C68.3596 145.814 68.2896 145.599 68.2196 145.379C68.1596 145.149 68.1096 144.974 68.0696 144.854C67.9996 145.164 67.9196 145.469 67.8296 145.769C67.7396 146.059 67.6646 146.289 67.6046 146.459L66.3896 149.699H69.7796L68.5796 146.459ZM80.3796 143.504V144.704H75.6846V154.214H74.3346V143.504H80.3796ZM87.8662 154.214L86.5762 150.899H82.3312L81.0562 154.214H79.6912L83.8762 143.459H85.0912L89.2612 154.214H87.8662ZM84.9712 146.459C84.9412 146.379 84.8912 146.234 84.8212 146.024C84.7512 145.814 84.6812 145.599 84.6112 145.379C84.5512 145.149 84.5012 144.974 84.4612 144.854C84.3912 145.164 84.3112 145.469 84.2212 145.769C84.1312 146.059 84.0562 146.289 83.9962 146.459L82.7812 149.699H86.1712L84.9712 146.459ZM97.0562 146.009C97.0562 146.739 96.8262 147.319 96.3662 147.749C95.9062 148.169 95.2912 148.439 94.5212 148.559V148.619C95.4212 148.739 96.1062 149.019 96.5762 149.459C97.0462 149.899 97.2812 150.474 97.2812 151.184C97.2812 152.124 96.9212 152.889 96.2012 153.479C95.4812 154.069 94.4012 154.364 92.9612 154.364C92.3812 154.364 91.8262 154.319 91.2962 154.229C90.7762 154.149 90.2912 153.999 89.8412 153.779V152.549C90.3112 152.769 90.8212 152.944 91.3712 153.074C91.9312 153.194 92.4562 153.254 92.9462 153.254C93.9062 153.254 94.6312 153.074 95.1212 152.714C95.6212 152.354 95.8712 151.844 95.8712 151.184C95.8712 150.504 95.5812 150.009 95.0012 149.699C94.4212 149.389 93.6112 149.234 92.5712 149.234H91.0412V148.109H92.4962C93.5562 148.109 94.3462 147.934 94.8662 147.584C95.3962 147.224 95.6612 146.744 95.6612 146.144C95.6612 145.604 95.4612 145.189 95.0612 144.899C94.6612 144.609 94.1412 144.464 93.5012 144.464C92.8312 144.464 92.2712 144.549 91.8212 144.719C91.3812 144.889 90.9512 145.109 90.5312 145.379L89.8862 144.464C90.3062 144.154 90.8212 143.894 91.4312 143.684C92.0512 143.464 92.7462 143.354 93.5162 143.354C94.6762 143.354 95.5562 143.604 96.1562 144.104C96.7562 144.604 97.0562 145.239 97.0562 146.009ZM99.5596 143.504H100.82V149.384C100.82 149.714 100.815 150.084 100.805 150.494C100.795 150.904 100.78 151.279 100.76 151.619C100.75 151.959 100.735 152.209 100.715 152.369H100.775L106.67 143.504H108.17V154.214H106.91V148.394C106.91 148.024 106.915 147.629 106.925 147.209C106.945 146.789 106.965 146.404 106.985 146.054C107.005 145.704 107.02 145.454 107.03 145.304H106.97L101.06 154.214H99.5596V143.504ZM119.248 154.214H117.898V149.219H112.408V154.214H111.058V143.504H112.408V148.034H117.898V143.504H119.248V154.214ZM121.322 150.178H124.969V151.606H121.322V150.178ZM131.75 154.214L128.225 144.824H128.165C128.195 145.134 128.22 145.554 128.24 146.084C128.26 146.604 128.27 147.149 128.27 147.719V154.214H127.025V143.504H129.02L132.32 152.279H132.38L135.74 143.504H137.72V154.214H136.385V147.629C136.385 147.109 136.395 146.594 136.415 146.084C136.445 145.574 136.47 145.159 136.49 144.839H136.43L132.86 154.214H131.75ZM145.118 151.169C144.798 151.879 144.473 152.474 144.143 152.954C143.823 153.424 143.443 153.779 143.003 154.019C142.563 154.249 142.003 154.364 141.323 154.364C141.043 154.364 140.778 154.344 140.528 154.304C140.288 154.264 140.068 154.209 139.868 154.139V152.804C140.068 152.894 140.283 152.969 140.513 153.029C140.743 153.079 140.983 153.104 141.233 153.104C141.793 153.104 142.233 152.984 142.553 152.744C142.883 152.504 143.188 152.079 143.468 151.469L139.343 143.504H140.828L143.813 149.399C143.863 149.499 143.923 149.629 143.993 149.789C144.063 149.939 144.123 150.084 144.173 150.224H144.233C144.273 150.114 144.323 149.984 144.383 149.834C144.443 149.674 144.493 149.544 144.533 149.444L147.113 143.504H148.538L145.118 151.169ZM156.324 146.009C156.324 146.739 156.094 147.319 155.634 147.749C155.174 148.169 154.559 148.439 153.789 148.559V148.619C154.689 148.739 155.374 149.019 155.844 149.459C156.314 149.899 156.549 150.474 156.549 151.184C156.549 152.124 156.189 152.889 155.469 153.479C154.749 154.069 153.669 154.364 152.229 154.364C151.649 154.364 151.094 154.319 150.564 154.229C150.044 154.149 149.559 153.999 149.109 153.779V152.549C149.579 152.769 150.089 152.944 150.639 153.074C151.199 153.194 151.724 153.254 152.214 153.254C153.174 153.254 153.899 153.074 154.389 152.714C154.889 152.354 155.139 151.844 155.139 151.184C155.139 150.504 154.849 150.009 154.269 149.699C153.689 149.389 152.879 149.234 151.839 149.234H150.309V148.109H151.764C152.824 148.109 153.614 147.934 154.134 147.584C154.664 147.224 154.929 146.744 154.929 146.144C154.929 145.604 154.729 145.189 154.329 144.899C153.929 144.609 153.409 144.464 152.769 144.464C152.099 144.464 151.539 144.549 151.089 144.719C150.649 144.889 150.219 145.109 149.799 145.379L149.154 144.464C149.574 144.154 150.089 143.894 150.699 143.684C151.319 143.464 152.014 143.354 152.784 143.354C153.944 143.354 154.824 143.604 155.424 144.104C156.024 144.604 156.324 145.239 156.324 146.009ZM164.797 154.214H158.812V143.504H164.797V144.689H160.162V148.034H164.527V149.204H160.162V153.029H164.797V154.214ZM174.452 140.174C174.382 140.924 174.127 141.494 173.687 141.884C173.257 142.264 172.567 142.454 171.617 142.454C170.637 142.454 169.942 142.264 169.532 141.884C169.132 141.504 168.907 140.934 168.857 140.174H170.087C170.137 140.714 170.277 141.079 170.507 141.269C170.747 141.449 171.127 141.539 171.647 141.539C172.107 141.539 172.467 141.444 172.727 141.254C172.997 141.054 173.157 140.694 173.207 140.174H174.452ZM167.162 143.504H168.422V149.384C168.422 149.714 168.417 150.084 168.407 150.494C168.397 150.904 168.382 151.279 168.362 151.619C168.352 151.959 168.337 152.209 168.317 152.369H168.377L174.272 143.504H175.772V154.214H174.512V148.394C174.512 148.024 174.517 147.629 174.527 147.209C174.547 146.789 174.567 146.404 174.587 146.054C174.607 145.704 174.622 145.454 174.632 145.304H174.572L168.662 154.214H167.162V143.504ZM182.836 154.214V143.504H190.876V154.214H189.541V144.689H184.186V154.214H182.836ZM196.642 143.504C198.042 143.504 199.062 143.779 199.702 144.329C200.342 144.879 200.662 145.654 200.662 146.654C200.662 147.244 200.527 147.799 200.257 148.319C199.997 148.829 199.552 149.244 198.922 149.564C198.302 149.884 197.457 150.044 196.387 150.044H195.157V154.214H193.807V143.504H196.642ZM196.522 144.659H195.157V148.889H196.237C197.257 148.889 198.017 148.724 198.517 148.394C199.017 148.064 199.267 147.504 199.267 146.714C199.267 146.024 199.047 145.509 198.607 145.169C198.167 144.829 197.472 144.659 196.522 144.659ZM202.904 143.504H204.164V149.384C204.164 149.714 204.159 150.084 204.149 150.494C204.139 150.904 204.124 151.279 204.104 151.619C204.094 151.959 204.079 152.209 204.059 152.369H204.119L210.014 143.504H211.514V154.214H210.254V148.394C210.254 148.024 210.259 147.629 210.269 147.209C210.289 146.789 210.309 146.404 210.329 146.054C210.349 145.704 210.364 145.454 210.374 145.304H210.314L204.404 154.214H202.904V143.504ZM217.238 143.504C218.638 143.504 219.658 143.779 220.298 144.329C220.938 144.879 221.258 145.654 221.258 146.654C221.258 147.244 221.123 147.799 220.853 148.319C220.593 148.829 220.148 149.244 219.518 149.564C218.898 149.884 218.053 150.044 216.983 150.044H215.753V154.214H214.403V143.504H217.238ZM217.118 144.659H215.753V148.889H216.833C217.853 148.889 218.613 148.724 219.113 148.394C219.613 148.064 219.863 147.504 219.863 146.714C219.863 146.024 219.643 145.509 219.203 145.169C218.763 144.829 218.068 144.659 217.118 144.659ZM232.83 148.844C232.83 149.954 232.64 150.924 232.26 151.754C231.89 152.574 231.34 153.214 230.61 153.674C229.88 154.134 228.975 154.364 227.895 154.364C226.785 154.364 225.86 154.134 225.12 153.674C224.39 153.214 223.845 152.569 223.485 151.739C223.125 150.909 222.945 149.939 222.945 148.829C222.945 147.729 223.125 146.769 223.485 145.949C223.845 145.129 224.39 144.489 225.12 144.029C225.86 143.569 226.79 143.339 227.91 143.339C228.98 143.339 229.88 143.569 230.61 144.029C231.34 144.479 231.89 145.119 232.26 145.949C232.64 146.769 232.83 147.734 232.83 148.844ZM224.37 148.844C224.37 150.194 224.655 151.259 225.225 152.039C225.795 152.809 226.685 153.194 227.895 153.194C229.115 153.194 230.005 152.809 230.565 152.039C231.125 151.259 231.405 150.194 231.405 148.844C231.405 147.494 231.125 146.439 230.565 145.679C230.005 144.909 229.12 144.524 227.91 144.524C226.7 144.524 225.805 144.909 225.225 145.679C224.655 146.439 224.37 147.494 224.37 148.844ZM242.126 143.504V153.014H243.491V157.034H242.201V154.214H234.836V157.034H233.546V153.014H234.371C234.731 152.394 235.071 151.699 235.391 150.929C235.721 150.159 236.011 149.354 236.261 148.514C236.511 147.664 236.716 146.814 236.876 145.964C237.036 145.114 237.136 144.294 237.176 143.504H242.126ZM238.361 144.719C238.321 145.299 238.221 145.954 238.061 146.684C237.911 147.414 237.716 148.164 237.476 148.934C237.246 149.694 236.986 150.429 236.696 151.139C236.416 151.849 236.116 152.474 235.796 153.014H240.791V144.719H238.361ZM253.472 154.214H252.122V149.219H246.632V154.214H245.282V143.504H246.632V148.034H252.122V143.504H253.472V154.214ZM256.4 154.214V143.504H257.75V148.034H259.4C260.4 148.034 261.185 148.169 261.755 148.439C262.335 148.709 262.745 149.074 262.985 149.534C263.235 149.994 263.36 150.509 263.36 151.079C263.36 152.019 263.055 152.779 262.445 153.359C261.845 153.929 260.885 154.214 259.565 154.214H256.4ZM265.01 154.214V143.504H266.36V154.214H265.01ZM259.445 153.074C260.305 153.074 260.94 152.909 261.35 152.579C261.76 152.249 261.965 151.749 261.965 151.079C261.965 150.389 261.74 149.909 261.29 149.639C260.85 149.359 260.17 149.219 259.25 149.219H257.75V153.074H259.445ZM276.551 154.214H275.021L272.186 149.564L269.306 154.214H267.881L271.436 148.634L268.106 143.504H269.606L272.231 147.704L274.871 143.504H276.296L272.981 148.604L276.551 154.214ZM118.794 171.214L115.269 161.824H115.209C115.239 162.134 115.264 162.554 115.284 163.084C115.304 163.604 115.314 164.149 115.314 164.719V171.214H114.069V160.504H116.064L119.364 169.279H119.424L122.784 160.504H124.764V171.214H123.429V164.629C123.429 164.109 123.439 163.594 123.459 163.084C123.489 162.574 123.514 162.159 123.534 161.839H123.474L119.904 171.214H118.794ZM134.397 171.214L133.107 167.899H128.862L127.587 171.214H126.222L130.407 160.459H131.622L135.792 171.214H134.397ZM131.502 163.459C131.472 163.379 131.422 163.234 131.352 163.024C131.282 162.814 131.212 162.599 131.142 162.379C131.082 162.149 131.032 161.974 130.992 161.854C130.922 162.164 130.842 162.469 130.752 162.769C130.662 163.059 130.587 163.289 130.527 163.459L129.312 166.699H132.702L131.502 163.459ZM139.592 171.214H138.242V161.689H134.897V160.504H142.922V161.689H139.592V171.214ZM150.522 171.214H144.537V160.504H150.522V161.689H145.887V165.034H150.252V166.204H145.887V170.029H150.522V171.214ZM155.707 160.504C157.107 160.504 158.127 160.779 158.767 161.329C159.407 161.879 159.727 162.654 159.727 163.654C159.727 164.244 159.592 164.799 159.322 165.319C159.062 165.829 158.617 166.244 157.987 166.564C157.367 166.884 156.522 167.044 155.452 167.044H154.222V171.214H152.872V160.504H155.707ZM155.587 161.659H154.222V165.889H155.302C156.322 165.889 157.082 165.724 157.582 165.394C158.082 165.064 158.332 164.504 158.332 163.714C158.332 163.024 158.112 162.509 157.672 162.169C157.232 161.829 156.537 161.659 155.587 161.659ZM161.969 160.504H163.229V166.384C163.229 166.714 163.224 167.084 163.214 167.494C163.204 167.904 163.189 168.279 163.169 168.619C163.159 168.959 163.144 169.209 163.124 169.369H163.184L169.079 160.504H170.579V171.214H169.319V165.394C169.319 165.024 169.324 164.629 169.334 164.209C169.354 163.789 169.374 163.404 169.394 163.054C169.414 162.704 169.429 162.454 169.439 162.304H169.379L163.469 171.214H161.969V160.504ZM180.188 171.214L178.898 167.899H174.653L173.378 171.214H172.013L176.198 160.459H177.413L181.583 171.214H180.188ZM177.293 163.459C177.263 163.379 177.213 163.234 177.143 163.024C177.073 162.814 177.003 162.599 176.933 162.379C176.873 162.149 176.823 161.974 176.783 161.854C176.713 162.164 176.633 162.469 176.543 162.769C176.453 163.059 176.378 163.289 176.318 163.459L175.103 166.699H178.493L177.293 163.459ZM190.758 171.214H189.408V161.689H186.018C185.928 162.429 185.828 163.209 185.718 164.029C185.608 164.839 185.498 165.614 185.388 166.354C185.278 167.094 185.168 167.724 185.058 168.244C184.928 168.914 184.768 169.484 184.578 169.954C184.388 170.424 184.133 170.779 183.813 171.019C183.503 171.259 183.093 171.379 182.583 171.379C182.413 171.379 182.238 171.359 182.058 171.319C181.888 171.289 181.738 171.249 181.608 171.199V170.074C181.718 170.124 181.843 170.169 181.983 170.209C182.123 170.239 182.273 170.254 182.433 170.254C182.733 170.254 182.968 170.134 183.138 169.894C183.318 169.644 183.458 169.339 183.558 168.979C183.658 168.609 183.743 168.244 183.813 167.884C183.893 167.504 183.988 166.949 184.098 166.219C184.218 165.479 184.343 164.619 184.473 163.639C184.613 162.659 184.753 161.614 184.893 160.504H190.758V171.214ZM203.013 165.844C203.013 166.954 202.823 167.924 202.443 168.754C202.073 169.574 201.523 170.214 200.793 170.674C200.063 171.134 199.158 171.364 198.078 171.364C196.968 171.364 196.043 171.134 195.303 170.674C194.573 170.214 194.028 169.569 193.668 168.739C193.308 167.909 193.128 166.939 193.128 165.829C193.128 164.729 193.308 163.769 193.668 162.949C194.028 162.129 194.573 161.489 195.303 161.029C196.043 160.569 196.973 160.339 198.093 160.339C199.163 160.339 200.063 160.569 200.793 161.029C201.523 161.479 202.073 162.119 202.443 162.949C202.823 163.769 203.013 164.734 203.013 165.844ZM194.553 165.844C194.553 167.194 194.838 168.259 195.408 169.039C195.978 169.809 196.868 170.194 198.078 170.194C199.298 170.194 200.188 169.809 200.748 169.039C201.308 168.259 201.588 167.194 201.588 165.844C201.588 164.494 201.308 163.439 200.748 162.679C200.188 161.909 199.303 161.524 198.093 161.524C196.883 161.524 195.988 161.909 195.408 162.679C194.838 163.439 194.553 164.494 194.553 165.844ZM208.447 160.504C209.787 160.504 210.797 160.704 211.477 161.104C212.167 161.494 212.512 162.179 212.512 163.159C212.512 163.789 212.337 164.314 211.987 164.734C211.637 165.144 211.132 165.409 210.472 165.529V165.604C210.922 165.674 211.327 165.804 211.687 165.994C212.057 166.184 212.347 166.454 212.557 166.804C212.767 167.154 212.872 167.609 212.872 168.169C212.872 169.139 212.537 169.889 211.867 170.419C211.207 170.949 210.302 171.214 209.152 171.214H205.387V160.504H208.447ZM208.717 165.064C209.637 165.064 210.267 164.919 210.607 164.629C210.947 164.329 211.117 163.889 211.117 163.309C211.117 162.719 210.907 162.299 210.487 162.049C210.077 161.789 209.417 161.659 208.507 161.659H206.737V165.064H208.717ZM206.737 166.189V170.074H208.897C209.847 170.074 210.507 169.889 210.877 169.519C211.247 169.149 211.432 168.664 211.432 168.064C211.432 167.504 211.237 167.054 210.847 166.714C210.467 166.364 209.782 166.189 208.792 166.189H206.737Z" fill="#F2F2F2"/>
</svg>
