<?xml version="1.0" encoding="utf-8"?>
<!-- Generator: Adobe Illustrator 18.0.0, SVG Export Plug-In . SVG Version: 6.00 Build 0)  -->
<!DOCTYPE svg PUBLIC "-//W3C//DTD SVG 1.1//EN" "http://www.w3.org/Graphics/SVG/1.1/DTD/svg11.dtd">
<svg version="1.1" id="Layer_1" xmlns="http://www.w3.org/2000/svg" xmlns:xlink="http://www.w3.org/1999/xlink" x="0px" y="0px"
	 viewBox="81.5 293.5 449 205" enable-background="new 81.5 293.5 449 205" xml:space="preserve">
<g>
	<g>
		<path fill="#303E36" d="M82.1,451.1h13c6.6,0,12.8,3.4,12.8,10.1c0,5.5-4.1,10.4-9.3,12v0.1c6.1,1.5,11.1,5.8,11.1,12.5
			c0,4.9-3.9,11.4-11.8,11.4H82L82.1,451.1L82.1,451.1z M88.2,471.4h2.5c5.8,0,11.1-2.5,11.1-8.9c0-5.8-5.5-6.9-9.9-6.9h-3.7
			C88.2,455.6,88.2,471.4,88.2,471.4z M88.2,492.3c1.8,0.2,3.7,0.3,5.8,0.3c8.1,0,9.3-4.4,9.3-7.4c0-8.3-10-10-15.1-10V492.3z"/>
	</g>
	<g>
		<path fill="#303E36" d="M121.7,451.1h25.4v4.6h-19.3v15.2H144v4.6h-16.2v17.2h20.6v4.6h-26.7L121.7,451.1L121.7,451.1z"/>
	</g>
	<g>
		<path fill="#303E36" d="M188.7,451.1v4.6h-14.4v41.5h-6.1v-41.5h-14.4v-4.6H188.7z"/>
	</g>
	<g>
		<path fill="#303E36" d="M204.6,473.8h0.1l18.4-22.7h6.1l-17.6,21.5l21.5,24.6h-8.4L204.6,473.8v23.4h-6.1v-46.2h6.1V473.8z"/>
	</g>
	<g>
		<path fill="#303E36" d="M249.2,487.6h0.1l25.5-36.5h4.9v46.2h-6.1v-36.1h-0.1l-25.2,36.1h-5.1v-46.2h6.1L249.2,487.6L249.2,487.6z
			"/>
	</g>
	<g>
		<path fill="#303E36" d="M300.9,473.8h0.1l18.4-22.7h6.1l-17.6,21.5l21.5,24.6h-8.4L300.9,473.8v23.4h-6.1v-46.2h6.1V473.8z"/>
	</g>
	<g>
		<path fill="#303E36" d="M352.2,451.1h6.1l18.3,46.2H370l-5.3-13.1h-20.3l-5.2,13.1h-5.4L352.2,451.1z M363,479.5l-8.3-21.1
			l-8.3,21.1H363z"/>
	</g>
	<g>
		<path fill="#303E36" d="M394.9,451.1l12.9,36.3h0.1l13.3-36.3h7.8v46.2h-5.8v-38h-0.1l-12.8,35h-6.1l-12.5-35h-0.1v38h-5.4v-46.2
			H394.9z"/>
	</g>
	<g>
		<path fill="#303E36" d="M450.2,470.8h22.4v-19.8h6.1v46.2h-6.1v-21.8h-22.4v21.8h-6.1v-46.2h6.1V470.8z"/>
	</g>
	<g>
		<path fill="#303E36" d="M500,487.6h0.1l25.5-36.5h4.9v46.2h-6.1v-36.1h-0.1L499,497.2h-5.1v-46.2h6.1L500,487.6L500,487.6z"/>
	</g>
</g>
<g>
	<g>
		<polygon fill="none" points="233.9,346.6 296.2,308.9 314.8,321.7 263,365.7 		"/>
	</g>
	<g>
		<polygon fill="none" points="180.4,397.7 229.8,349.5 263.4,371.5 303.5,425.6 185.1,426.2 		"/>
	</g>
	<g>
		<polygon fill="#AACAC7" points="296.2,308.9 234.1,346.8 263,365.7 314.8,321.7 		"/>
	</g>
	<g>
		<polygon fill="#EAF6F7" points="434.7,400.1 385,296.4 321.9,319.8 263.2,368 307.5,428 405.9,428 		"/>
		<path fill="#303E36" d="M406.9,430.3H306.3L260,367.6l60.6-49.8l65.5-24.3l51.3,107.1L406.9,430.3z M308.7,425.6H405l26.9-26
			l-48-100.2l-60.8,22.5l-56.6,46.4L308.7,425.6z"/>
	</g>
	<g>
		<g>
			<path fill="#303E36" d="M181.1,430.9l-5.7-34.8l50.6-49.4l4.1-2.5l34.8,22.7l45.3,63.4L181.1,430.9z M180.4,397.7l4.7,28.4
				l117.4-0.6l-41-55.3l-31.8-20.8L180.4,397.7z"/>
		</g>
	</g>
	<g>
		<g>
			<path fill="#303E36" d="M263.4,371.5l-31.9-20.8l-5.5-4l70.3-43.4l26.2,18L263.4,371.5z M233.9,346.6l0.2,0.1l28.9,18.9l51.8-44
				l-18.6-12.8L233.9,346.6z"/>
		</g>
	</g>
	<g>
		<path fill="none" stroke="#333F1E" stroke-width="22.9588" stroke-miterlimit="10" d="M300.9,339.8"/>
	</g>
	<g>
		<path fill="none" stroke="#333F1E" stroke-width="20.2577" stroke-miterlimit="10" d="M250.7,358.3"/>
	</g>
	<g>
		<path fill="none" stroke="#333F1E" stroke-width="20.2577" stroke-miterlimit="10" d="M399.8,394.6"/>
	</g>
	<g>
		<path fill="none" stroke="#333F1E" stroke-width="20.2577" stroke-miterlimit="10" d="M206.3,399.7"/>
	</g>
	<g>
		<path fill="none" stroke="#333F1E" stroke-width="20.2577" stroke-miterlimit="10" d="M339.1,375.8"/>
	</g>
	<g>
		<path fill="none" stroke="#333F1E" stroke-width="20.2577" stroke-miterlimit="10" d="M311.9,398.1"/>
	</g>
	<g>
		
			<rect x="365.2" y="344" transform="matrix(0.4994 0.8664 -0.8664 0.4994 500.6907 -135.478)" fill="#303E36" width="4.7" height="43.1"/>
	</g>
	<g>
		<rect x="347.8" y="374.1" fill="#303E36" width="4.7" height="55"/>
	</g>
	<g>
		
			<rect x="371.8" y="380.2" transform="matrix(0.4824 0.8759 -0.8759 0.4824 550.7637 -116.7431)" fill="#303E36" width="4.7" height="55"/>
	</g>
	<g>
		
			<rect x="378.1" y="377.6" transform="matrix(0.9174 0.398 -0.398 0.9174 187.9699 -118.9319)" fill="#303E36" width="4.7" height="31.3"/>
	</g>
	<g>
		
			<rect x="328.7" y="352.8" transform="matrix(0.7898 0.6134 -0.6134 0.7898 290.9645 -138.6191)" fill="#303E36" width="38.1" height="4.7"/>
	</g>
	<g>
		
			<rect x="349.9" y="331.5" transform="matrix(0.7725 0.635 -0.635 0.7725 298.2604 -145.5211)" fill="#303E36" width="4.7" height="24"/>
	</g>
	<g>
		
			<rect x="283.5" y="384.8" transform="matrix(0.8077 0.5896 -0.5896 0.8077 289.9425 -114.6941)" fill="#303E36" width="74.5" height="4.7"/>
	</g>
	<g>
		
			<rect x="319.5" y="355.9" transform="matrix(0.8309 0.5565 -0.5565 0.8309 260.4162 -116.4978)" fill="#303E36" width="4.7" height="28.5"/>
	</g>
	<g>
		
			<rect x="255.5" y="329.6" transform="matrix(0.5769 0.8168 -0.8168 0.5769 392.1204 -63.6256)" fill="#303E36" width="3.9" height="34.3"/>
	</g>
	<g>
		<polygon fill="#CEE7E6" points="229.8,349.5 180.4,397.7 185.1,426.2 303.5,425.6 261.6,370.3 		"/>
	</g>
	<g>
		
			<rect x="259.5" y="334.9" transform="matrix(4.510417e-002 0.999 -0.999 4.510417e-002 589.2762 57.2381)" fill="#303E36" width="10.4" height="3.9"/>
	</g>
	<g>
		<rect x="256.1" y="345.9" fill="#303E36" width="17.2" height="3.9"/>
	</g>
	<g>
		<g>
			
				<rect x="189.5" y="394.7" transform="matrix(0.7163 0.6978 -0.6978 0.7163 336.531 -33.591)" fill="#303E36" width="40.1" height="4.7"/>
		</g>
		<g>
			
				<rect x="220.7" y="368.8" transform="matrix(0.272 0.9623 -0.9623 0.272 535.5162 67.6751)" fill="#303E36" width="4.7" height="37.9"/>
		</g>
		<g>
			
				<rect x="220.7" y="399.1" transform="matrix(0.7463 0.6657 -0.6657 0.7463 328.4215 -58.7587)" fill="#303E36" width="41.1" height="4.7"/>
		</g>
		<g>
			<rect x="199.9" y="389.7" fill="#303E36" width="4.7" height="22.7"/>
		</g>
	</g>
</g>
</svg>
