<?xml version="1.0" encoding="utf-8"?>
<!-- Generator: Adobe Illustrator 18.0.0, SVG Export Plug-In . SVG Version: 6.00 Build 0)  -->
<!DOCTYPE svg PUBLIC "-//W3C//DTD SVG 1.1//EN" "http://www.w3.org/Graphics/SVG/1.1/DTD/svg11.dtd">
<svg version="1.1" id="Layer_1" xmlns="http://www.w3.org/2000/svg" xmlns:xlink="http://www.w3.org/1999/xlink" x="0px" y="0px"
	 viewBox="0 0 3000 1300" enable-background="new 0 0 3000 1300" xml:space="preserve">
<g>
	<g>
		<g>
			<path fill="#485755" d="M448.3,1210.8h26.9v-69H487v79.8h-88.5v-79.8H410v69h26.7v-69h11.7V1210.8z"/>
		</g>
		<g>
			<path fill="#485755" d="M501.5,1181.6c0-12,4.2-21.9,12.5-29.6c8.1-7.6,18.2-11.3,30.3-11.3c12.3,0,22.5,3.7,30.5,11.1
				c8.2,7.6,12.3,17.6,12.3,29.8c0,12.2-4.1,22.2-12.3,29.8c-8.2,7.6-18.4,11.4-30.8,11.4c-12.1,0-22.2-3.9-30.4-11.6
				C505.5,1203.5,501.5,1193.6,501.5,1181.6z M513.2,1181.5c0,8.8,3,16.1,9,21.9c6,5.7,13.4,8.6,22.2,8.6c8.9,0,16.3-2.9,22.2-8.6
				c5.9-5.7,8.9-13,8.9-21.9c0-8.9-3-16.2-8.9-21.9c-5.9-5.7-13.3-8.6-22.2-8.6c-9,0-16.4,2.8-22.3,8.5
				C516.1,1165.2,513.2,1172.5,513.2,1181.5z"/>
		</g>
		<g>
			<path fill="#485755" d="M665.7,1141.8l-29.7,81.7c-1.7,4.7-4.8,9.2-9.4,13.6c-1.7,1.6-4.2,2.7-7.4,3c-1.2,0.2-2.4,0.2-3.4,0.2
				c-5,0-8.8-1.3-11.5-4v-12.6c1.1,1.6,2.6,2.9,4.6,4c1.9,1.1,3.9,1.6,5.7,1.6c4.5,0,7.4-1.4,8.7-4.2l1.5-2.5c1-1.6,1.8-3.3,2.5-5
				l-32.3-75.8h11.4l26.2,62.7l21.8-62.7H665.7z"/>
		</g>
		<g>
			<path fill="#485755" d="M700.8,1190.2v11h-28.5v-11H700.8z"/>
		</g>
		<g>
			<path fill="#485755" d="M721.1,1141.8h25c7.6,0,13.6,1.9,18.1,5.7c4.8,4.1,7.1,9.8,7.1,17.2c0,7.6-2.7,13.3-8.1,17.1
				c-4.8,3.4-11,5.1-18.8,5.1h-11.9v34.6h-11.5V1141.8z M732.6,1152.2v24.3h13.1c4.2,0,7.6-1,10.2-3.1s3.9-5.1,3.9-9.2
				c0-8-4.5-12.1-13.6-12.1H732.6z"/>
		</g>
		<g>
			<path fill="#485755" d="M848.5,1141.8l-29.7,81.7c-1.7,4.7-4.8,9.2-9.4,13.6c-1.7,1.6-4.2,2.7-7.4,3c-1.2,0.2-2.4,0.2-3.4,0.2
				c-5,0-8.8-1.3-11.5-4v-12.6c1.1,1.6,2.6,2.9,4.6,4c1.9,1.1,3.9,1.6,5.7,1.6c4.5,0,7.4-1.4,8.7-4.2l1.5-2.5c1-1.6,1.8-3.3,2.5-5
				l-32.3-75.8h11.4l26.2,62.7l21.8-62.7H848.5z"/>
		</g>
		<g>
			<path fill="#485755" d="M933.5,1141.8v79.8H922v-62.2l-24.8,30.9l-1.9,0l-24.8-30.9v62.2H859v-79.8h10.4l26.8,32.8l26.5-32.8
				H933.5z"/>
		</g>
		<g>
			<path fill="#485755" d="M1054.7,1141.8v79.8h-11.5v-69.4h-44v69.4h-11v-79.8H1054.7z"/>
		</g>
		<g>
			<path fill="#485755" d="M1081.7,1141.8h25c7.6,0,13.6,1.9,18.1,5.7c4.8,4.1,7.1,9.8,7.1,17.2c0,7.6-2.7,13.3-8.1,17.1
				c-4.8,3.4-11,5.1-18.8,5.1h-11.9v34.6h-11.5V1141.8z M1093.2,1152.2v24.3h13.1c4.2,0,7.6-1,10.2-3.1s3.9-5.1,3.9-9.2
				c0-8-4.5-12.1-13.6-12.1H1093.2z"/>
		</g>
		<g>
			<path fill="#485755" d="M1147.3,1141.8h10.8v62.7l52.9-62.7h10.3v79.8h-11.2v-62.9l-52.9,62.9h-9.8V1141.8z"/>
		</g>
		<g>
			<path fill="#485755" d="M1246.9,1141.8h25c7.6,0,13.6,1.9,18.1,5.7c4.8,4.1,7.1,9.8,7.1,17.2c0,7.6-2.7,13.3-8.1,17.1
				c-4.8,3.4-11,5.1-18.8,5.1h-11.9v34.6h-11.5V1141.8z M1258.4,1152.2v24.3h13.1c4.2,0,7.6-1,10.2-3.1s3.9-5.1,3.9-9.2
				c0-8-4.5-12.1-13.6-12.1H1258.4z"/>
		</g>
		<g>
			<path fill="#485755" d="M1309.1,1181.6c0-12,4.2-21.9,12.5-29.6c8.1-7.6,18.2-11.3,30.3-11.3c12.3,0,22.5,3.7,30.5,11.1
				c8.2,7.6,12.3,17.6,12.3,29.8c0,12.2-4.1,22.2-12.3,29.8c-8.2,7.6-18.4,11.4-30.8,11.4c-12.1,0-22.2-3.9-30.4-11.6
				C1313.1,1203.5,1309.1,1193.6,1309.1,1181.6z M1320.8,1181.5c0,8.8,3,16.1,9,21.9c6,5.7,13.4,8.6,22.2,8.6
				c8.9,0,16.3-2.9,22.2-8.6c5.9-5.7,8.9-13,8.9-21.9c0-8.9-3-16.2-8.9-21.9c-5.9-5.7-13.3-8.6-22.2-8.6c-9,0-16.4,2.8-22.3,8.5
				C1323.7,1165.2,1320.8,1172.5,1320.8,1181.5z"/>
		</g>
		<g>
			<path fill="#485755" d="M1484.6,1211.2h11.2v23.3h-9.8v-12.9h-71.1v12.9h-8.9v-23.3h10.3l29.7-70h8L1484.6,1211.2z
				 M1427.9,1211.2h44.8l-23-52.5L1427.9,1211.2z"/>
		</g>
		<g>
			<path fill="#485755" d="M1576.8,1141.8v79.8h-11.5v-34.8h-44.7v34.8h-11.5v-79.8h11.5v34.6h44.7v-34.6H1576.8z"/>
		</g>
		<g>
			<path fill="#485755" d="M1595.5,1221.6v-79.8h11.5v32.5h14.3c8.3,0,15.1,2.1,20.4,6.2c5.8,4.4,8.7,10.7,8.7,18.8v0.9
				c0,7-2.9,12.4-8.8,16.3c-5,3.4-11.2,5-18.6,5H1595.5z M1607,1184.4v26.8h14.3c7.4,0,12.5-2,15.2-6.1c1.2-1.9,1.9-4,1.9-6.5
				c0-4.7-1.8-8.3-5.3-10.8c-3.1-2.3-7.1-3.4-12.1-3.4H1607z M1673.4,1141.8v79.8h-11.5v-79.8H1673.4z"/>
		</g>
		<g>
			<path fill="#485755" d="M1766.1,1141.8l-31.9,38.3l34,41.5h-13.8l-27.1-33.1l-27.5,33.1h-14l34.4-41.4l-31.7-38.4h13.8l25,30.4
				l25-30.4H1766.1z"/>
		</g>
		<g>
			<path fill="#485755" d="M1887.8,1141.8v79.8h-11.5v-62.2l-24.8,30.9l-1.9,0l-24.8-30.9v62.2h-11.5v-79.8h10.4l26.8,32.8
				l26.5-32.8H1887.8z"/>
		</g>
		<g>
			<path fill="#485755" d="M1940.9,1141.2l35.8,80.4H1965l-10.8-23.6h-34l-10,23.6h-11.7l34.4-80.4H1940.9z M1936.7,1158.9
				l-11.9,28.7h24.7L1936.7,1158.9z"/>
		</g>
		<g>
			<path fill="#485755" d="M2046.2,1141.8v10.4h-27.6v69.4h-11.5v-69.4h-27.6v-10.4H2046.2z"/>
		</g>
		<g>
			<path fill="#485755" d="M2102.7,1141.8v10.4H2069v24h32.5v10.4H2069v24.6h34.9v10.4h-46.3v-79.8H2102.7z"/>
		</g>
		<g>
			<path fill="#485755" d="M2126.1,1141.8h25c7.6,0,13.6,1.9,18.1,5.7c4.8,4.1,7.1,9.8,7.1,17.2c0,7.6-2.7,13.3-8.1,17.1
				c-4.8,3.4-11,5.1-18.8,5.1h-11.9v34.6h-11.5V1141.8z M2137.6,1152.2v24.3h13.1c4.2,0,7.6-1,10.2-3.1s3.9-5.1,3.9-9.2
				c0-8-4.5-12.1-13.6-12.1H2137.6z"/>
		</g>
		<g>
			<path fill="#485755" d="M2191.8,1141.8h10.8v62.7l52.9-62.7h10.3v79.8h-11.2v-62.9l-52.9,62.9h-9.8V1141.8z"/>
		</g>
		<g>
			<path fill="#485755" d="M2319.1,1141.2l35.8,80.4h-11.7l-10.8-23.6h-34l-10,23.6h-11.7l34.4-80.4H2319.1z M2314.9,1158.9
				l-11.9,28.7h24.7L2314.9,1158.9z"/>
		</g>
		<g>
			<path fill="#485755" d="M2397.9,1141.2l35.6,80.4h-12.9l-26.9-62.8l-24.7,62.8h-11.8l32.8-80.4H2397.9z"/>
		</g>
		<g>
			<path fill="#485755" d="M2443.6,1181.6c0-12,4.2-21.9,12.5-29.6c8.1-7.6,18.2-11.3,30.3-11.3c12.3,0,22.5,3.7,30.5,11.1
				c8.2,7.6,12.3,17.6,12.3,29.8c0,12.2-4.1,22.2-12.3,29.8c-8.2,7.6-18.4,11.4-30.8,11.4c-12.1,0-22.2-3.9-30.4-11.6
				C2447.6,1203.5,2443.6,1193.6,2443.6,1181.6z M2455.3,1181.5c0,8.8,3,16.1,9,21.9c6,5.7,13.4,8.6,22.2,8.6
				c8.9,0,16.3-2.9,22.2-8.6c5.9-5.7,8.9-13,8.9-21.9c0-8.9-3-16.2-8.9-21.9c-5.9-5.7-13.3-8.6-22.2-8.6c-9,0-16.4,2.8-22.3,8.5
				C2458.2,1165.2,2455.3,1172.5,2455.3,1181.5z"/>
		</g>
		<g>
			<path fill="#485755" d="M2545.9,1221.6v-79.8h23.2c6.9,0,12.6,1.6,17.1,4.9c5,3.7,7.5,8.8,7.5,15.4c0,7.7-4.1,13.4-12.2,17.1
				c5.7,1.2,10.3,3.5,13.7,7c3.7,3.7,5.5,8.4,5.5,14c0,7-2.9,12.4-8.8,16.3c-5,3.4-11.2,5-18.6,5H2545.9z M2557.4,1152.2v23.8h7.5
				c11.2,0,16.8-4.3,16.8-12.8c0-7.3-4.6-10.9-13.8-10.9H2557.4z M2557.4,1186.4v24.8h14.3c7.4,0,12.5-2,15.2-6
				c1.2-1.9,1.9-4,1.9-6.5c0-8.2-5.8-12.3-17.6-12.3H2557.4z"/>
		</g>
	</g>
	<g>
		<g>
			<path fill="#303E36" d="M399.8,832.7h63.8c32.5,0,62.9,16.6,62.9,49.4c0,27.2-20,51-45.4,58.8v0.6c30,7.2,54.4,28.5,54.4,61.3
				c0,24.1-18.8,56-57.9,56h-77.9V832.7z M429.9,932.5h12.5c28.5,0,54.1-12.2,54.1-43.5c0-28.5-26.9-33.8-48.5-33.8h-18.1V932.5z
				 M429.9,1034.8c8.8,0.9,18.1,1.6,28.5,1.6c39.7,0,45.4-21.9,45.4-36.3c0-40.7-48.8-48.8-73.9-48.8V1034.8z"/>
		</g>
		<g>
			<path fill="#303E36" d="M593.9,832.7h124.5v22.5h-94.5v74.5h79.5v22.5h-79.5v84.2H725v22.5H593.9V832.7z"/>
		</g>
		<g>
			<path fill="#303E36" d="M922.4,832.7v22.5H852v203.7h-30V855.2h-70.4v-22.5H922.4z"/>
		</g>
		<g>
			<path fill="#303E36" d="M1000.6,944.1h0.6l90.1-111.4h29.7l-86.4,105.5l105.5,120.8h-41.3L1000.6,944.1v114.8h-30V832.7h30V944.1
				z"/>
		</g>
		<g>
			<path fill="#303E36" d="M1219.1,1011.7h0.6l124.9-179h23.8v226.2h-30V882.1h-0.6l-123.6,176.8h-25V832.7h30V1011.7z"/>
		</g>
		<g>
			<path fill="#303E36" d="M1472.5,944.1h0.6l90.1-111.4h29.7l-86.4,105.5l105.5,120.8h-41.3L1472.5,944.1v114.8h-30V832.7h30V944.1
				z"/>
		</g>
		<g>
			<path fill="#303E36" d="M1723.8,832.7h30l89.5,226.2h-32.2l-25.7-64.2h-99.5l-25.3,64.2h-26.3L1723.8,832.7z M1776.7,972.2
				l-41-103.3L1695,972.2H1776.7z"/>
		</g>
		<g>
			<path fill="#303E36" d="M1933.5,832.7l63.2,178.1h0.6l65.1-178.1h37.9v226.2h-28.2V872.4h-0.6l-62.6,171.5h-30l-61-171.5h-0.6
				v186.5h-26.3V832.7H1933.5z"/>
		</g>
		<g>
			<path fill="#303E36" d="M2204.4,929.7h109.8v-97h30v226.2h-30V952.2h-109.8v106.7h-30V832.7h30V929.7z"/>
		</g>
		<g>
			<path fill="#303E36" d="M2448.5,1011.7h0.6l124.9-179h23.8v226.2h-30V882.1h-0.6l-123.6,176.8h-25V832.7h30V1011.7z"/>
		</g>
	</g>
	<g>
		<g>
			<polygon fill="none" points="1144,320.8 1449.3,135.8 1540.7,198.8 1287,414.2 			"/>
		</g>
		<g>
			<polygon fill="none" points="882,571.4 1123.9,335.1 1288.8,442.8 1485.2,707.7 905,710.8 			"/>
		</g>
		<g>
			<polygon fill="#AACAC7" points="1449.3,135.8 1145.1,321.5 1287,414.2 1540.7,198.8 			"/>
		</g>
		<g>
			<polygon fill="#EAF6F7" points="2128.3,582.9 1884.9,74.7 1575.3,189.6 1287.9,425.4 1504.8,719.6 1987.4,719.6 			"/>
			<path fill="#303E36" d="M1992,731.1h-493l-226.8-307.7l297.4-243.9l321.2-119.2l251.5,525.1L1992,731.1z M1510.6,708.1h472.1
				l131.6-127.7L1879,89.2l-297.9,110.5l-277.5,227.6L1510.6,708.1z"/>
		</g>
		<g>
			<g>
				<path fill="#303E36" d="M885.5,733.9l-28.1-170.5l247.9-242.2l20.2-12.5L1296,420.1l222.1,311.1L885.5,733.9z M882,571.4
					l23,139.3l575.8-2.6l-201-271.2l-155.8-101.8L882,571.4z"/>
			</g>
		</g>
		<g>
			<g>
				<path fill="#303E36" d="M1288.8,442.8l-156.3-102l-27.2-19.6l344.8-212.7l128.3,88.4L1288.8,442.8z M1144,320.8l1.1,0.7
					l141.9,92.6l253.7-215.4l-91.4-63L1144,320.8z"/>
			</g>
		</g>
		<g>
			<path fill="none" stroke="#333F1E" stroke-width="22.9588" stroke-miterlimit="10" d="M1472.6,287.6"/>
		</g>
		<g>
			<path fill="none" stroke="#333F1E" stroke-width="20.2577" stroke-miterlimit="10" d="M1226.3,378.2"/>
		</g>
		<g>
			<path fill="none" stroke="#333F1E" stroke-width="20.2577" stroke-miterlimit="10" d="M1957.1,555.8"/>
		</g>
		<g>
			<path fill="none" stroke="#333F1E" stroke-width="20.2577" stroke-miterlimit="10" d="M1009.1,580.9"/>
		</g>
		<g>
			<path fill="none" stroke="#333F1E" stroke-width="20.2577" stroke-miterlimit="10" d="M1659.9,463.9"/>
		</g>
		<g>
			<path fill="none" stroke="#333F1E" stroke-width="20.2577" stroke-miterlimit="10" d="M1526.6,572.9"/>
		</g>
		<g>
			
				<rect x="1788" y="307.9" transform="matrix(0.4994 0.8664 -0.8664 0.4994 1258.9916 -1352.0818)" fill="#303E36" width="23" height="211.1"/>
		</g>
		<g>
			<rect x="1702.5" y="455.5" fill="#303E36" width="23" height="269.4"/>
		</g>
		<g>
			
				<rect x="1820.5" y="485.4" transform="matrix(0.4824 0.8759 -0.8759 0.4824 1491.3898 -1283.8086)" fill="#303E36" width="23" height="269.5"/>
		</g>
		<g>
			
				<rect x="1851.1" y="472.8" transform="matrix(0.9174 0.398 -0.398 0.9174 372.6438 -695.9447)" fill="#303E36" width="23" height="153.7"/>
		</g>
		<g>
			
				<rect x="1608.7" y="351.2" transform="matrix(0.7898 0.6134 -0.6134 0.7898 580.2001 -967.7194)" fill="#303E36" width="186.7" height="23"/>
		</g>
		<g>
			
				<rect x="1712.8" y="246.5" transform="matrix(0.7725 0.635 -0.635 0.7725 586.2055 -1025.4478)" fill="#303E36" width="23" height="117.8"/>
		</g>
		<g>
			
				<rect x="1387.6" y="507.8" transform="matrix(0.8077 0.5896 -0.5896 0.8077 608.0654 -825.8632)" fill="#303E36" width="365.1" height="23"/>
		</g>
		<g>
			
				<rect x="1563.8" y="366.4" transform="matrix(0.8309 0.5565 -0.5565 0.8309 509.2126 -802.8589)" fill="#303E36" width="23" height="139.6"/>
		</g>
		<g>
			
				<rect x="1250.2" y="237.1" transform="matrix(0.5769 0.8168 -0.8168 0.5769 795.3334 -893.0769)" fill="#303E36" width="19" height="168"/>
		</g>
		<g>
			<polygon fill="#CEE7E6" points="1123.9,335.1 882,571.4 905,710.8 1485.2,707.7 1279.8,436.9 			"/>
		</g>
		<g>
			
				<rect x="1269.6" y="263.4" transform="matrix(4.510572e-002 0.999 -0.999 4.510572e-002 1509.2734 -1033.1887)" fill="#303E36" width="51.1" height="19"/>
		</g>
		<g>
			<rect x="1253.1" y="317.4" fill="#303E36" width="84" height="19"/>
		</g>
		<g>
			<g>
				
					<rect x="926.5" y="556.7" transform="matrix(0.7163 0.6978 -0.6978 0.7163 687.27 -553.9142)" fill="#303E36" width="196.6" height="23"/>
			</g>
			<g>
				
					<rect x="1079.3" y="429.4" transform="matrix(0.272 0.9623 -0.9623 0.272 1296.7672 -669.3212)" fill="#303E36" width="23" height="186"/>
			</g>
			<g>
				
					<rect x="1079.4" y="578" transform="matrix(0.7463 0.6657 -0.6657 0.7463 691.8668 -635.999)" fill="#303E36" width="201.5" height="23"/>
			</g>
			<g>
				<rect x="977.4" y="532.1" fill="#303E36" width="23" height="111"/>
			</g>
		</g>
	</g>
</g>
</svg>
