<?xml version="1.0" encoding="utf-8"?>
<!-- Generator: Adobe Illustrator 18.0.0, SVG Export Plug-In . SVG Version: 6.00 Build 0)  -->
<!DOCTYPE svg PUBLIC "-//W3C//DTD SVG 1.1//EN" "http://www.w3.org/Graphics/SVG/1.1/DTD/svg11.dtd">
<svg version="1.1" id="Layer_1" xmlns="http://www.w3.org/2000/svg" xmlns:xlink="http://www.w3.org/1999/xlink" x="0px" y="0px"
	 viewBox="0 9.5 68 30" enable-background="new 0 9.5 68 30" xml:space="preserve">
<path fill="#303E36" d="M3,13.9v25.2h2V28.6h3.3l7.3,10.6h2.4l-7.7-10.7c4-0.5,6.9-3.1,6.9-7.2c0-4.6-3.7-7.3-8.5-7.3H3z M8.8,15.7
	c3.8,0,6.6,1.9,6.6,5.5s-2.7,5.5-6.6,5.5H5V15.7H8.8z M21.7,13.9V31c0,5,3,8.5,8.1,8.5s8.1-3.5,8.1-8.5V13.9h-2V31
	c0,4-2.2,6.6-6.1,6.6S23.7,35,23.7,31V13.9H21.7z"/>
<path fill="none" stroke="#303E36" stroke-width="2" d="M47,20.1l10.2,9l9.8-9"/>
</svg>
