<svg width="261" height="54" viewBox="0 0 261 54" fill="none" xmlns="http://www.w3.org/2000/svg">
<path d="M19.16 34.88C19.16 36.72 18.76 38.24 17.96 39.44C17.16 40.64 16.0533 41.5333 14.64 42.12C13.2533 42.7067 11.6533 43 9.84 43H3.36V15H9.44C11.9467 15 13.9333 15.5733 15.4 16.72C16.8667 17.8667 17.6 19.5467 17.6 21.76C17.6 23.3333 17.1467 24.6133 16.24 25.6C15.3333 26.5867 14.12 27.2667 12.6 27.64C13.8 27.88 14.8933 28.3067 15.88 28.92C16.8667 29.5333 17.6533 30.3333 18.24 31.32C18.8533 32.3067 19.16 33.4933 19.16 34.88ZM9.44 16.96H5.56V26.68H9.44C11.0933 26.68 12.4933 26.2933 13.64 25.52C14.8133 24.72 15.4 23.5067 15.4 21.88C15.4 20.3333 14.8533 19.1333 13.76 18.28C12.6933 17.4 11.2533 16.96 9.44 16.96ZM5.56 41.04H9.84C11.9733 41.04 13.68 40.52 14.96 39.48C16.2667 38.4133 16.92 36.84 16.92 34.76C16.92 33.4533 16.5867 32.3467 15.92 31.44C15.28 30.5333 14.4133 29.84 13.32 29.36C12.2533 28.88 11.0933 28.64 9.84 28.64H5.56V41.04ZM37.2569 24.6H39.3369V31.52L47.2169 24.6H49.8969L41.2169 32.2L50.6569 43H48.0169L39.3369 33.08V43H37.2569V24.6ZM52.8881 33.8C52.8881 31.9333 53.3015 30.28 54.1281 28.84C54.9548 27.4 56.0748 26.2667 57.4881 25.44C58.9281 24.6133 60.5415 24.2 62.3281 24.2C64.1148 24.2 65.7148 24.6133 67.1281 25.44C68.5681 26.2667 69.7015 27.4 70.5281 28.84C71.3548 30.28 71.7681 31.9333 71.7681 33.8C71.7681 35.64 71.3548 37.2933 70.5281 38.76C69.7015 40.2 68.5681 41.3333 67.1281 42.16C65.7148 42.9867 64.1148 43.4 62.3281 43.4C60.5415 43.4 58.9281 42.9867 57.4881 42.16C56.0748 41.3333 54.9548 40.2 54.1281 38.76C53.3015 37.2933 52.8881 35.64 52.8881 33.8ZM55.0081 33.8C55.0081 35.2667 55.3281 36.5867 55.9681 37.76C56.6081 38.9067 57.4748 39.8133 58.5681 40.48C59.6881 41.12 60.9415 41.44 62.3281 41.44C63.7148 41.44 64.9548 41.12 66.0481 40.48C67.1681 39.8133 68.0481 38.9067 68.6881 37.76C69.3281 36.5867 69.6481 35.2667 69.6481 33.8C69.6481 32.3067 69.3281 30.9867 68.6881 29.84C68.0481 28.6933 67.1681 27.8 66.0481 27.16C64.9548 26.4933 63.7148 26.16 62.3281 26.16C60.9415 26.16 59.6881 26.4933 58.5681 27.16C57.4748 27.8 56.6081 28.6933 55.9681 29.84C55.3281 30.9867 55.0081 32.3067 55.0081 33.8ZM78.2041 51.8H76.1241V24.6H78.2041V28.92C78.8441 27.48 79.7507 26.3333 80.9241 25.48C82.0974 24.6267 83.4707 24.2 85.0441 24.2C86.6974 24.2 88.1907 24.5867 89.5241 25.36C90.8574 26.1333 91.9241 27.24 92.7241 28.68C93.5241 30.12 93.9241 31.8267 93.9241 33.8C93.9241 35.7733 93.5241 37.48 92.7241 38.92C91.9241 40.36 90.8574 41.4667 89.5241 42.24C88.1907 43.0133 86.6974 43.4 85.0441 43.4C83.4707 43.4 82.0974 42.9733 80.9241 42.12C79.7507 41.2667 78.8441 40.12 78.2041 38.68V51.8ZM91.8441 33.8C91.8441 32.2 91.5241 30.8267 90.8841 29.68C90.2441 28.5333 89.3907 27.6667 88.3241 27.08C87.2574 26.4667 86.0707 26.16 84.7641 26.16C83.6174 26.16 82.5374 26.4933 81.5241 27.16C80.5374 27.8267 79.7374 28.7333 79.1241 29.88C78.5107 31.0267 78.2041 32.3333 78.2041 33.8C78.2041 35.2667 78.5107 36.5733 79.1241 37.72C79.7374 38.8667 80.5374 39.7733 81.5241 40.44C82.5374 41.1067 83.6174 41.44 84.7641 41.44C86.0707 41.44 87.2574 41.1333 88.3241 40.52C89.3907 39.9067 90.2441 39.04 90.8841 37.92C91.5241 36.7733 91.8441 35.4 91.8441 33.8ZM105.977 43.4C103.817 43.4 102.07 42.8133 100.737 41.64C99.4032 40.4667 98.6299 38.9867 98.4166 37.2H100.537C100.75 38.3733 101.283 39.4 102.137 40.28C103.017 41.1333 104.297 41.56 105.977 41.56C107.363 41.56 108.55 41.24 109.537 40.6C110.55 39.9333 111.057 38.9867 111.057 37.76C111.057 36.5067 110.55 35.5867 109.537 35C108.55 34.4133 107.283 34.12 105.737 34.12V32.28C107.203 32.28 108.31 32 109.057 31.44C109.803 30.8533 110.177 30.1067 110.177 29.2C110.177 28.24 109.79 27.48 109.017 26.92C108.243 26.36 107.257 26.08 106.057 26.08C105.097 26.08 104.27 26.2667 103.577 26.64C102.883 27.0133 102.35 27.4933 101.977 28.08C101.63 28.64 101.457 29.2133 101.457 29.8H99.3366C99.3366 28.7867 99.6299 27.8533 100.217 27C100.83 26.1467 101.643 25.4667 102.657 24.96C103.697 24.4533 104.843 24.2 106.097 24.2C107.27 24.2 108.323 24.4133 109.257 24.84C110.19 25.24 110.923 25.8133 111.457 26.56C112.017 27.28 112.297 28.1067 112.297 29.04C112.297 29.9733 112.003 30.8 111.417 31.52C110.857 32.24 110.03 32.7733 108.937 33.12C110.27 33.44 111.297 33.9867 112.017 34.76C112.737 35.5333 113.097 36.52 113.097 37.72C113.097 38.92 112.763 39.9467 112.097 40.8C111.457 41.6267 110.59 42.2667 109.497 42.72C108.43 43.1733 107.257 43.4 105.977 43.4ZM120.163 24.6V38.8L132.363 23.2V43H130.283V28.8L118.083 44.4V24.6H120.163ZM138.547 24.6H140.627V32.28H151.947V24.6H154.027V43H151.947V34.24H140.627V43H138.547V24.6ZM174.231 24.6L162.231 51.8H159.911L164.631 41.12L157.191 24.6H159.671L165.831 39.12L171.911 24.6H174.231Z" fill="#006154"/>
<path d="M244 17L259 32L244 47" stroke="#006154" stroke-width="2"/>
<path d="M192 32H257.5" stroke="#006154" stroke-width="2"/>
</svg>
