<svg width="40" height="40" viewBox="0 0 40 40" fill="none" xmlns="http://www.w3.org/2000/svg">
<path d="M20 0C8.90322 0 0 8.90322 0 20C0 31.0968 8.90322 40 20 40C31.0968 40 40 31.0968 40 20C40 8.90322 31.0968 0 20 0ZM29.8065 13.6774L26.5806 29.1613C26.3226 30.3226 25.6774 30.5806 24.7742 30.0645L19.7419 26.3226L17.2903 28.6452C17.0323 28.9032 16.7742 29.1613 16.2581 29.1613L16.6452 24.129L25.9355 15.7419C26.3226 15.3548 25.8065 15.2258 25.2903 15.4839L13.8065 22.7097L8.90323 21.1613C7.87097 20.7742 7.87097 20.129 9.16129 19.6129L28.3871 12.129C29.2903 11.7419 30.0645 12.3871 29.8065 13.6774Z" fill="#EAF6F6"/>
</svg>
