<svg width="46" height="46" viewBox="0 0 46 46" fill="none" xmlns="http://www.w3.org/2000/svg">
<path d="M23 2.875C11.8953 2.875 2.875 11.8953 2.875 23C2.875 34.1047 11.8953 43.125 23 43.125C34.1047 43.125 43.125 34.1047 43.125 23C43.125 11.8953 34.1047 2.875 23 2.875ZM28.6781 15.5609C28.6781 15.7766 28.5344 15.9203 28.3188 15.9203H26.0188C24.5094 15.9203 24.2219 16.4953 24.2219 17.6813V20.0891H28.1391C28.2469 20.0891 28.3547 20.125 28.4266 20.1969C28.4984 20.2688 28.5344 20.3766 28.4984 20.4844L27.9234 24.7969C27.8875 24.9766 27.7437 25.1203 27.5641 25.1203H24.1859V35.8656C24.1859 36.0812 24.0422 36.225 23.8266 36.225H19.4422C19.2266 36.225 19.0828 36.0812 19.0828 35.8656V25.1203H15.7047C15.4891 25.1203 15.3453 24.9766 15.3453 24.7609V20.4484C15.3453 20.2328 15.4891 20.0891 15.7047 20.0891H19.0828V17.25C19.0828 13.5125 21.3469 11.1766 25.0125 11.1766C26.5938 11.1766 27.9594 11.2844 28.3906 11.3562C28.5703 11.3922 28.7141 11.5359 28.7141 11.7156V15.5609H28.6781Z" fill="#EAF6F6"/>
</svg>
