<svg width="40" height="39" viewBox="0 0 40 39" fill="none" xmlns="http://www.w3.org/2000/svg">
<path d="M33.2 38.7H7.00001C3.50001 38.7 0.700012 35.9 0.700012 32.4V6.3C0.700012 2.8 3.60001 0 7.00001 0H33.2C36.7 0 39.5 2.8 39.5 6.3V32.4C39.5 35.8 36.7 38.7 33.2 38.7ZM13.7 8H26.7C29.5 8 31.7 10.2 31.7 13V26C31.7 28.8 29.5 31 26.7 31H13.7C10.9 31 8.70001 28.8 8.70001 26V13C8.70001 10.2 11 8 13.7 8ZM13.7 5C9.30001 5 5.70001 8.6 5.70001 13V26C5.70001 30.4 9.30001 34 13.7 34H26.7C31.1 34 34.7 30.4 34.7 26V13C34.7 8.6 31.1 5 26.7 5H13.7ZM20.2 26.5C24.1 26.5 27.2 23.4 27.2 19.5C27.2 15.6 24.1 12.5 20.2 12.5C16.3 12.5 13.2 15.6 13.2 19.5C13.2 23.4 16.4 26.5 20.2 26.5ZM20.2 23.5C18 23.5 16.2 21.7 16.2 19.5C16.2 17.3 18 15.5 20.2 15.5C22.4 15.5 24.2 17.3 24.2 19.5C24.2 21.7 22.5 23.5 20.2 23.5ZM27.7 14C28.8 14 29.7 13.1 29.7 12C29.7 10.9 28.8 10 27.7 10C26.6 10 25.7 10.9 25.7 12C25.7 13.1 26.6 14 27.7 14Z" fill="#EAF6F6"/>
</svg>
