<svg width="261" height="54" viewBox="0 0 261 54" fill="none" xmlns="http://www.w3.org/2000/svg">
<path d="M19.16 34.88C19.16 30.72 16.2 28.36 12.6 27.64C15.64 26.88 17.6 24.92 17.6 21.76C17.6 17.32 14.44 15 9.44 15H3.36V43H9.84C15.24 43 19.16 40.44 19.16 34.88ZM9.44 16.96C13.04 16.96 15.4 18.8 15.4 21.88C15.4 25.16 12.72 26.68 9.44 26.68H5.56V16.96H9.44ZM5.56 41.04V28.64H9.84C13.6 28.64 16.92 30.84 16.92 34.76C16.92 38.92 14.08 41.04 9.84 41.04H5.56ZM37.2569 24.6V43H39.3369V33.08L48.0169 43H50.6569L41.2169 32.2L49.8969 24.6H47.2169L39.3369 31.52V24.6H37.2569ZM52.8881 33.8C52.8881 39.36 56.9681 43.4 62.3281 43.4C67.6881 43.4 71.7681 39.36 71.7681 33.8C71.7681 28.24 67.6881 24.2 62.3281 24.2C56.9681 24.2 52.8881 28.24 52.8881 33.8ZM55.0081 33.8C55.0081 29.36 58.1681 26.16 62.3281 26.16C66.4881 26.16 69.6481 29.36 69.6481 33.8C69.6481 38.24 66.4881 41.44 62.3281 41.44C58.1681 41.44 55.0081 38.24 55.0081 33.8ZM78.2041 51.8V38.68C79.4441 41.56 81.8841 43.4 85.0441 43.4C89.9641 43.4 93.9241 39.72 93.9241 33.8C93.9241 27.88 89.9641 24.2 85.0441 24.2C81.8841 24.2 79.4441 26.04 78.2041 28.92V24.6H76.1241V51.8H78.2041ZM91.8441 33.8C91.8441 38.6 88.6441 41.44 84.7641 41.44C81.3241 41.44 78.2041 38.2 78.2041 33.8C78.2041 29.4 81.3241 26.16 84.7641 26.16C88.6441 26.16 91.8441 29 91.8441 33.8ZM105.977 43.4C109.777 43.4 113.097 41.32 113.097 37.72C113.097 35.28 111.577 33.76 108.937 33.12C111.137 32.4 112.297 30.92 112.297 29.04C112.297 26.24 109.617 24.2 106.097 24.2C102.297 24.2 99.3366 26.76 99.3366 29.8H101.457C101.457 28.04 103.137 26.08 106.057 26.08C108.457 26.08 110.177 27.28 110.177 29.2C110.177 31.04 108.657 32.28 105.737 32.28V34.12C108.817 34.12 111.057 35.28 111.057 37.76C111.057 40.24 108.737 41.56 105.977 41.56C102.617 41.56 100.937 39.56 100.537 37.2H98.4166C98.8166 40.76 101.657 43.4 105.977 43.4ZM120.163 24.6H118.083V44.4L130.283 28.8V43H132.363V23.2L120.163 38.8V24.6ZM138.547 24.6V43H140.627V34.24H151.947V43H154.027V24.6H151.947V32.28H140.627V24.6H138.547ZM174.231 24.6H171.911L165.831 39.12L159.671 24.6H157.191L164.631 41.12L159.911 51.8H162.231L174.231 24.6Z" fill="#078D7B"/>
<path d="M244 17L259 32L244 47" stroke="#078D7B" stroke-width="2"/>
<path d="M192 32H257.5" stroke="#078D7B" stroke-width="2"/>
</svg>
